<?xml version="1.0" encoding="UTF-8"?>
<svg id="Camada_2" data-name="Camada 2" xmlns="http://www.w3.org/2000/svg" viewBox="0 0 2407.3 2407.3">
  <defs>
    <style>
      .cls-1 {
        fill: #ec1b24;
      }

      .cls-2 {
        fill: #020101;
      }

      .cls-3 {
        fill: #fdfdfd;
      }
    </style>
  </defs>
  <g id="Camada_2-2" data-name="Camada 2">
    <g>
      <path class="cls-2" d="M2407.3,1203.65c0,664.76-538.89,1203.65-1203.65,1203.65S0,1868.41,0,1203.65,538.89,0,1203.65,0s1203.65,538.89,1203.65,1203.65ZM1227.91,752.18c207.36,12.3,378.01,160.6,419.13,363.68l579.48-.69c-18.07-207.43-96.03-397.58-223.79-555.22-33.84-42.75-68.97-79.9-109.61-115.92-393.64-359.04-997.13-355.66-1386.81,7.22-19.35,17.2-34.82,32.73-52.25,52-156.3,166.39-252.94,379.46-273.25,611.84l579.41.58c44.43-220.29,242.89-374.87,467.69-363.5ZM1478.28,1203.67c0-151.71-122.98-274.69-274.69-274.69s-274.69,122.98-274.69,274.69,122.98,274.69,274.69,274.69,274.69-122.98,274.69-274.69ZM2226.08,1292.37l-579.15.17c-43.8,214.38-231.88,363.9-444.68,363.21-213.69-.69-399.04-151.89-442.02-363.6l-579.16.34c19.47,232.01,119.23,449.15,275.44,614.07,401.84,427.84,1078.18,431.76,1485.52,9.47,160.57-166.46,264.83-386.89,284.04-623.66Z"/>
      <g>
        <path class="cls-1" d="M1227.91,752.18c-224.8-11.38-423.26,143.21-467.69,363.5l-579.41-.58c20.31-232.38,116.95-445.45,273.25-611.84,17.43-19.27,32.89-34.79,52.25-52,389.68-362.88,993.18-366.27,1386.81-7.22,40.64,36.01,75.77,73.17,109.61,115.92,127.76,157.64,205.73,347.8,223.79,555.22l-579.48.69c-41.12-203.08-211.77-351.38-419.13-363.68Z"/>
        <g>
          <path class="cls-3" d="M2226.08,1292.37c-19.21,236.77-123.47,457.19-284.04,623.66-407.35,422.29-1083.68,418.37-1485.52-9.47-156.21-164.92-255.97-382.06-275.44-614.07l579.16-.34c42.99,211.72,228.33,362.92,442.02,363.6,212.79.68,400.87-148.83,444.68-363.21l579.15-.17Z"/>
          <circle class="cls-3" cx="1203.59" cy="1203.67" r="274.69"/>
        </g>
      </g>
    </g>
  </g>
</svg>