<?xml version="1.0" encoding="UTF-8"?>
<svg id="Camada_2" data-name="Camada 2" xmlns="http://www.w3.org/2000/svg" viewBox="0 0 2371.77 756">
  <defs>
    <style>
      .cls-1 {
        fill: #d3d4d5;
      }

      .cls-2 {
        fill: #fbfbfb;
      }

      .cls-3 {
        fill: #c3c4c6;
      }

      .cls-4 {
        fill: #080e0b;
      }

      .cls-5 {
        fill: #e5e6e6;
      }
    </style>
  </defs>
  <g id="TIPOGRAFIA">
    <g>
      <path class="cls-1" d="M1837.11,327.41c.87,3.97.42,10.71,5.48,11.77,15.54,3.25,31.45-4.84,47.86-6.8,47.11-5.64,43.09-51.06,69.45-41.33,10.47,10.74,2.98,29.45,11.37,43.88l41.38-25.02c-3.99-32.8-7.15-63.77-2.48-99,19.54,3.37,65.93-7.32,77.34,3.52l-31.55,95.46-13.12,8.33c8.36-23.74,12.59-49.03,24.68-73.32,3.77-7.57,5.58-15.57,5.33-24.07-18.4.3-35.98-1.13-54.12,2.43-3.02,31.49,3.3,59.7,5.3,90.71-18.27,15.84-37.53,29.29-60.26,41.71l-12.11-56.73c-22.55,30.76-44.62,59.9-59.77,93.35-10.64,23.51-5.63,54.34-19.21,75.74l-58.01,28.72c-38.06,18.84,3.38-73.2,3.35-88.09l-93.12,79.33c-9.47,8.06-23.38,3.62-31.56-1.99-21.33-14.61-5.28-42.42-12.66-54.85-36.08,17.91-64.54,52.35-101.56,66.27-50.23-1.3-23.79-87.06-13.18-112.29,17-9.62-10.3,47.28-3,59.86,10.2-22.56,13.5-46.12,19.56-70.73,41.61-11.82,37.69,7.47,50.74-20.92l58.21-126.6c-10.53-10.23-29.65-28.61-44.52-23.37-38.95,13.73-90.64,92.4-123.3,119.09-3.9,3.19-16.43,8.34-15.32,3.14l12.02-56.59c12.29-57.86,28.72-49.9,39.03-94.58l58.64-109.03c-1.09-10.09-17.21-19.67-30.2-19.24-5.53,10.82-29.87,108.34-28.11,106.85-.94.8-2.59,1-4.22.46l6.5-45.42c1.13-7.9,7.16-14.52,6.69-26.38-37.02,5.07-53.68-14.07-68.83-9.41-7.41,2.28,4.71,39.58,2.96,45.78-4.19,10.37-3.79,22.22-7.06,33.72-5.67,19.88-11.35,37.99-14.62,58.36-7.35,45.78-25.55,94.89-29.7,136.09-1.03,10.25,9.43,20.41,2.53,31.39,12.38,3.69,22.82,2.54,33.8-.23,5.58-1.41,11.75-.35,17.41-.42,6.24,3.35-36.14,57.41-34.61,56.24-8.56,6.57-19.56,9.44-25.98,20.29-2.09,3.52-8.28,3.99-10.45,1.63-1.12-1.22-3.19-3.33-1.65-6.65,10-21.45,13.61-45.66,13.25-68.96-4.54-2.66-9.92-1.66-13.28-1.59l60.53-266.36c-.95-15.29-17.33-39.1-3.49-49.98,3.83-3.01,9.68-4.89,15.6-2.56l32.6,12.86c28.95,11.42,36.17-30.29,44.1-34.4,10.3-5.34,22.41-1.81,30.29,4.06,6.21,4.63,18.75,16.41,13.26,27.02-23.42,45.3-45.51,88.95-65.21,135.9-15,35.75-31.96,68.22-40.19,107.81,30.13-24.76,98.54-124.57,136.16-121.68,17.07,1.31,33.22,15.61,43.83,28,5.38,6.28.48,15.26-2.26,21.15-26.45,56.85-56.35,110.38-72.41,176.13,21.43-1.53,57.02-11.32,67.68-33.15,21.23-43.45,20.15-94.26,30.74-141.22,2.08-9.24,3.96-15.75,14.85-16.81l72.3-7.08c4.09-.4,16.05,1.48,15.82,5.99-16.27,59.69-54.09,118.4-66.46,180.58,25.68-14.69,46.96-30.5,66.84-49.04,7.92-7.39,2.16-21.79,10.1-27.7ZM1767.28,351.12l44.02-119.19-77.57,2.81-17.13,124.76c17.82-1.17,34.41-2.31,50.68-8.38ZM1562.04,453.72c-1.98-3.66-3.85-2.13-4.3,1.91.56,8.14,4.78,7.11,4.3-1.91Z"/>
      <path class="cls-2" d="M1106.42,84.77c-6.85,11.04,2.39,24.29,2.02,37.74-.25,9.16-3.76,17.78,4.71,23.41-9.84,5.4-28.63,6.49-41.15,9.19l-86.49,18.62c-15.93,53.35-34.36,104.9-41.5,158.23-9.21,9.11-18.96,64.54-22.2,77.04-2.59-4.05-3.93-8.53-8.31-8.33l-57.88,2.73c-6.58,20.26-15.61,45.8-18.42,63.42-4.87,30.57-20.78,70.9-19.02,90.23-4.72,1.29-9.88,9-14.81,5.69-5.71-3.84-5.52-10.58-3.6-17.39l39.37-140.02c6.01-.41,7.64-5.33,9.27-12.22l45.15-191.66c1.06-4.51-.59-8.73-2.35-10.6-7.3-7.78-76.14,10.85-94.52,12.76,4.22-31.41,13.59-58.88,23.24-87.78,20.47-6.56,40.36-6.46,61.92-9.4,75.71-10.33,149.94-18.43,224.57-21.66Z"/>
      <path class="cls-3" d="M212.61,542.49c3.59.44,4.3,4.97,2.57,7.53-1.41,2.08-5.89,1.11-6.38,6.71,9.95-2.41,17.18-5.94,28.88-3.49-5.54,17.25-7.32,33.34-4.7,50.86-11.67,5.54-19.96,11.23-31.23,13.16,7.67,4.85,8.15,8.59-.04,5.53-16.79,6.25-81.95,18.29-62.81,38.46-2.19.65-4.92,3.1-7.13,4.21,2.24-11.31-24.89,8.28-26.66,9.94-11.27-11.72-3.29-18.5-1.9-35.04.09-1.06.35-2.31.75-3.29.93-2.33,1.66-4.72,2.45-7.09,3.04-9.19,6.58-18.28,7.65-27.94.28-2.52,3.05-4.65,3.82-7.01,24-73.37,47.22-148.25,59.16-224.36,2.12-.28,4.74-.53,6.39-2.57,2.27-2.81-2.82-5.32-3.13-7.64-.65-4.77,1.45-9.92,4.09-13.7l6.46-.9c18.38-2.57,40.19,6.09,63.62,6.54l47.51-116.97c14.89-36.66,32.84-71.17,42.93-112.41l-151.76,58.76c5.15,8.17,20.98,7.67,20.3,17.4-1.64,23.43-10.99,44.88-15.4,66.26-2.11-2.53-4.86-6.71-.46-11.72-.83-3.14-3.64-3.68-6.01-2.27,3.68-15.17,8.41-31.96,11.92-49.46-12.28-11.95-29.7-6.09-40.73-21.77l200.36-77.79c-2.54,22.76-11.45,38.96-18.93,57.59l-93.11,232.01-55.07,153.25c7.01-.95,13.8-.99,16.61-2.8Z"/>
      <path class="cls-1" d="M429.21,304.53c-2.9,2.18-.59,4.77-.03,7.19,1.84,7.93-8.07,9.42-13.87,13.82-6.07,4.6,5.68,13.54,3.83,17.29-5.79,11.74-1.24,25.37-3.91,35.02-4.8,17.32-34.53,65.05-34.99,90.85-.34,19.15-12.34,37.08-31.47,36.33,4.76,5.66,10.74.31,13.38,4.36.99,1.53,1.74,19.08,8.94,16.04,3.99-1.68,9.09-16.78,15.21-17.76,6.47-1.03,14.78-2.45,18.33,3.36,4.52,7.39,3.79,15.74,7.91,23.98,18.71-2.1,23,9.56,29.21,23.43,4.69,10.48,32.92,21.9,54.56,3.52-4.94-4.5-9.15-4.49-10.68-7.13,20.08-13.34,17.17,14.98,43.29-36.48,2.11.36,3.36,3.02,6.7,5.15,5.15-9.62,7.27-19.83,8.04-32.23,3.41-.3,6.71.49,9.41,1.98-5.24,9.57-22.68,71.58-62.95,88.62-40.65,17.2-79.81-21.71-99.55-59.95l-28.49,51.78c-68.9,21.22-133.51,49.06-199.72,77.06-8.95,3.78-15.6,8.17-23.45,10.49-19.14-20.16,46.02-32.21,62.81-38.46,8.19,3.06,7.71-.68.04-5.53,11.27-1.93,19.56-7.62,31.23-13.16-2.62-17.52-.83-33.61,4.7-50.86-11.71-2.46-18.93,1.08-28.88,3.49.49-5.59,4.97-4.63,6.38-6.71,1.74-2.56,1.03-7.09-2.57-7.53,16.49-12.12,36.98-17.94,57.66-25.23l91.3-32.18c2.96-51.03,33.64-95.68,46.45-143.03-11.32-3.35-20.41-2.57-25.27-14.48,16.46-7.32,29.8-23.31,46.47-23.04ZM215.59,621.31c0-.97-.78-1.75-1.75-1.75s-1.75.78-1.75,1.75.78,1.75,1.75,1.75,1.75-.78,1.75-1.75Z"/>
      <path class="cls-5" d="M1333.52,389.14c-7.05,47.03-13.02,28.7-56.47,60.63,13.57-9.97-51.72,25.56-45.74,22.18,7.76,13.24,16.33,8.86,21.59,16.98,1.06,1.63,1.01,8.47-2.4,7.42l-33.4-10.35c-6.91-1.53-9.18,8.82-.46,7.1,10.25,19.35,26.61,9.94,40.72,6.52,8.83-2.14,14.03-1.71,23.68-7.36l54.44-31.9c7.62-4.46,11.19-10.45,20.99-4.37,6.37-6.57,15.63-12.14,22.86-15.89-50.96,53.35-149.83,98.14-220.81,116.25-1.22-2.87-5.09-2.53-7.2-5.81,11.15-3.09,20.87-4.11,28.9-11.6l-70.27,14.25c-13.79-39.14-35.85-28.71-20.19-55.77-3.75-6.24-11.47-5.74-12.49-13.87l14.68,1.25c-1.04-2.6-4.76-11.72-.74-12.48,11.32-2.12,14.86-10.88,23.11-15.32l51.09-27.5c3.06-1.65,9.18-.4,10.41,2.3.86,1.9-3.78,4-2.45,9.23,8.03-6.22,12.64-14.11,14.28-22.53l-27.67,7.12c-4.82,1.24-8.96-1.32-12.3-2.45,8.18-5.7,51.94-29.12,55.94-15.18,3.74,13.03-31.09,41.66-32.33,62.48,31.59-3.96,146.97-46.77,143.42-76.53-.83-7-7.81-13.88-15.95-16.62l-86.06-28.89c-23.44-7.87-40.36-19.43-53.26-36.97,3.33-.95,5.65-3.62,6.39-6.97,9.24,10.19,20.93,19.93,33.33,25.9,1.93-1.55,4.15-5.95,6.64-5.35,2.25.54,1.55,9.07,3.32,9.64l78.56,25.48c18.11,5.87,31.11,16.95,45.83,28.99ZM1172.61,446.03c0-.97-.78-1.75-1.75-1.75s-1.75.78-1.75,1.75.78,1.75,1.75,1.75,1.75-.78,1.75-1.75ZM1183.13,481.09c0-.97-.78-1.75-1.75-1.75s-1.75.78-1.75,1.75.78,1.75,1.75,1.75,1.75-.78,1.75-1.75ZM1202.88,481.09c0-1.23-1-2.23-2.23-2.23s-2.23,1-2.23,2.23,1,2.23,2.23,2.23,2.23-1,2.23-2.23ZM1176.12,484.59c0-.97-.78-1.75-1.75-1.75s-1.75.78-1.75,1.75.78,1.75,1.75,1.75,1.75-.78,1.75-1.75ZM1291.8,495.11c0-.97-.78-1.75-1.75-1.75s-1.75.78-1.75,1.75.78,1.75,1.75,1.75,1.75-.78,1.75-1.75ZM1190.61,528.41c0-1.23-1-2.23-2.23-2.23s-2.23,1-2.23,2.23,1,2.23,2.23,2.23,2.23-1,2.23-2.23Z"/>
      <path class="cls-5" d="M2055.97,309.88l3.57.83c-2.02,7.7-6.78,15.93-6.7,25.48.15,17.37,30.26,3.32,37.38,29.06,4.56-15.71,14.45-19.24,25.5-22.9l-22.68,66.11c-1.05,3.06-1.53,9.98.83,10.43,1.84.35,7.17.04,9.49-1.14l76.3-38.76c5.95-3.02,11.21-5.4,16.91-4.73,3.19,9.96-9.37,18.65,3.85,19.24-3.08,4.2-6.99,10.23-12.18,14.99l-127.42,116.82c-2.17,1.99-7.71,2.54-9.86,2.76,5.87-.6-44.86-62.99-49.73-71.53-8.33-14.61,4.63-33.25,9.53-47.15l32.1-91.17,13.12-8.33Z"/>
      <path class="cls-3" d="M948.67,332.09l-4.66-.13c7.14-53.34,25.57-104.88,41.5-158.23l86.49-18.62c12.52-2.69,31.3-3.79,41.15-9.19,3.63-1.69,14.88,2.87,16.48-4.37,4.16-18.89,3.18-38.97,1.74-57.99-10.5-2.38-17.52.89-24.95,1.21-74.63,3.23-148.86,11.34-224.57,21.66-21.56,2.94-41.45,2.84-61.92,9.4-9.65,28.9-19.02,56.37-23.24,87.78,18.38-1.92,87.22-20.55,94.52-12.76,1.76,1.88,3.41,6.09,2.35,10.6l-45.15,191.66c-1.62,6.89-3.25,11.81-9.27,12.22-.5-6.06.15-12.51,1.88-20.13l42.48-186.98-99.61,19.72c-20.46-14.98-35.85-33.49-51.67-51.8l-46.57-53.91,118.63-8.03,88.14-10.6c84.2-10.13,166.24-20.01,252.38-21.56l-2.62,68.34c-.27,7.09-5.28,13.33-12.27,14.7l-126.29,24.67c-4.4.86-13.57,6.3-14.46,12.07-7.61,49.35-29.29,94.24-40.49,140.26ZM744.77,166.52l3.7,6.24c2.11,3.55,9.65,4.76,10.17-1.53.74-8.88-5.59-16.43-6.03-24.95-.41-8.01,8.92-15.87,6.18-24.67-1.99-6.39-12.73-2-17.13-1.94-7.86.1-19.94-2.03-29.31,1.62,5.46,19.76,20.16,31.91,32.41,45.23Z"/>
      <path class="cls-3" d="M2020.96,568.09c-.87,1.56-3.12,1.67-5.26,2.6-1.44.63,2.48,2.72,5.07,6.58-55.44,2.8-110.1-5.53-168.26-7.89l-248.65-10.07c-9.02-.37-17.72,3.41-24.32,2.76-27.87-3.88-56.3-2.43-84.68-.99,11.22,3.34,21.31,4.87,32.12,5.1l52.27,1.12c76.55,1.64,310.88,31.2,387.08,63.9-14.17-.74-29.11.29-39.67-2.18-85.41-19.9-169.89-35.34-260.07-42.35-138.56-10.78-272.97-17.66-415.87-16.05,10.27-14.56,26.83-18.38,44.13-18.77,162.71-3.71,322.66-5.19,485.39,3.45l240.7,12.79Z"/>
      <path class="cls-2" d="M1565.96,385.12c2.25-5.33,5.01-16.11,6.68-21.76,1.66.97,1.76,3.43,4.98,6.85,8.86-16.28,14.56-39.35,16.08-58.96-11.17-20.08-53.96,41.16-60.47,49.67-10.15,3.26-19.45,9.83-28.06,16.01-5.66.08-11.83-.98-17.41.42-1.96-11.58,5.23-22.74,6.59-35.54,1.39-13.14,5.93-63.14,11.84-67.13,3.52-2.38,8.72-5.36,14.17-5.69l-12.02,56.59c-1.11,5.21,11.42.05,15.32-3.14,32.66-26.68,84.35-105.36,123.3-119.09,14.87-5.24,33.98,13.14,44.52,23.37l-58.21,126.6c-13.05,28.39-9.13,9.1-50.74,20.92-6.07,24.61-9.37,48.17-19.56,70.73-7.31-12.58,19.99-69.48,3-59.86Z"/>
      <path class="cls-3" d="M2161.23,237.64c.33-3.46.43-6.93.21-10.4,44.38-7.88,88.96-8.97,137.21-10.3-.42-10.93-5.74-30.04-17.33-32.66-35.31-7.98-71.37-8.39-106.29-13.82,5.32-30.23,17.76-51.22,27.02-77.05-17.69-16.36-38.84-26-62.21-32.66l-27.02,77.2c-3.94,11.25-5.97,30.43-16.74,36.75l-70.42,7.22c-4.58,13.87-16.86,20.72-28.09,28.38-12.04,8.21-22.62,20.05-32.91,30.24-8.14,8.06-43.4,53.38-51.92,51.04,1.14-25.53,16.91-49.84,14.81-66.38-.65-5.13-45.83-21.31-58.98-24.32-4,26-7.22,48.71-12.73,70.95-1.82-3.01-4.74-5.01-7.89-6.45,2.85-17.85,4.34-77.75,20.78-77.16,2.55.09,64.12,18.4,67.36,26.1,10.28,11.08-4.82,28.81-2.34,44.78,17.7-19.44,47.43-65.94,74.15-65.47,1.2-8.5-.49-15.92,1.61-24.18l74.48-4.07c7.89-.43,10.91-7.1,13.22-13.58l38.9-109.16c28.93,9.07,53.12,22.23,75.58,38.9,14.26,10.59-20.82,58.04-23.94,79.28l101.74,12.54c4.6,2.42,40.35,53.36,18.73,54.19-35.44,1.36-69.44,1.63-104.68,6.3-15.04,1.99-28.81,4.77-42.31,3.79Z"/>
      <path class="cls-5" d="M948.67,332.09c-13.3,54.62-22.99,111.19-41.41,167.4,19.65,7.67,32.07-1.03,48.09,13.79-47.43,15.93-92.01,31.44-137.17,43.77-1.76-19.33,14.15-59.66,19.02-90.23,2.8-17.62,11.84-43.16,18.42-63.42l57.88-2.73c4.38-.21,5.72,4.28,8.31,8.33,3.24-12.5,12.99-67.93,22.2-77.04l4.66.13Z"/>
      <path class="cls-3" d="M461.25,702.81c-29.09-2.33-55.06-10.22-82.79-23.03,19.2-13.97,133.29-47.42,156.18-52.27l124.52-26.39c60.23-12.77,346.17-46.53,393.01-39.44,2.32.35,4.07,8.12,1.1,8.28-116.03,6.54-227.33,20.13-340.7,41.67-88.86,16.88-170.3,46.39-251.32,91.18ZM548.52,640.16c-13.97-3.03-28.02,1.02-42.64,5.78-33.97,11.07-67.78,15.76-101.88,31.42,15.94,4.71,38.8,21.17,55.18,13.56l71.03-33c6.77-3.14,12.31-11.77,21.9-12.41,9.07-.61,18.25-3.14,27.27-8.85,9.49-6.01,23.23,0,30.66-13.03l-61.51,16.54Z"/>
      <path class="cls-2" d="M2020.96,568.09c6.12.33,18.37,1.45,20.27,9.26-15.03,20.38-34.38,36.53-51.06,53.21-19.52,19.52-40.26,6.12-63.5-1.53,10.56,2.46,25.5,1.44,39.67,2.18-76.2-32.69-310.53-62.26-387.08-63.9l.29-5.24c6.59.65,15.3-3.13,24.32-2.76l248.65,10.07c58.16,2.36,112.82,10.69,168.26,7.89-2.6-3.86-6.51-5.95-5.07-6.58,2.13-.93,4.39-1.04,5.26-2.6Z"/>
      <path class="cls-1" d="M1379.34,440.09c-7.22,3.76-16.49,9.32-22.86,15.89-9.8-6.08-13.37-.1-20.99,4.37l-54.44,31.9c-9.65,5.65-14.85,5.22-23.68,7.36-14.11,3.42-30.47,12.83-40.72-6.52-8.72,1.71-6.45-8.64.46-7.1l33.4,10.35c3.4,1.06,3.46-5.78,2.4-7.42-5.26-8.13-13.83-3.74-21.59-16.98-5.99,3.38,59.31-32.14,45.74-22.18,43.46-31.92,49.42-13.6,56.47-60.63,21.6,2.23,45.83-.87,69.46-2.03-.91-59.02-102.23-81.31-138.29-107.97,3.69.83,2.01-4.19,2.2-6.33,32.84,13.47,65.47,28.01,97.63,46.09,24.01,13.5,47.25,32.48,51.32,61.05,3.58,25.13-15.72,49.33-36.5,60.14Z"/>
      <path class="cls-5" d="M1112.64,371.51c-40.69,12.08-81.81,14.22-121.74,22.65-4.58.97-8.66-3.1-10.87-4.61-11.94-8.16,17.65-55.42,24.71-72.19,38.21-3.34,76.09-8.9,114.94-9.53,23.49-.38,6.25,59.74-7.04,63.69Z"/>
      <path class="cls-3" d="M1266.89,272.81c-.19,2.14,1.49,7.16-2.2,6.33-7.58-1.63-22.61-9.71-19.89-19.97,3.94-14.88,46.86-55.12,59.21-62.17,2.17-1.24,1.6-7.79,2.79-9.48-1.65,2.34,42.78-16.2,46.43-16.46,26.83-1.96,27.4,37.59,41.18,42.09,11.29-6.75,10.94-19.78,8.31-31.22,7.14-2.93,14.69-7.29,18.55-15.78,10.12-22.25,24.45-40.57,36.07-63.04-8.4-15.11-20.67-28.71-35.79-39.25-82.77,30.73-152.56,68.6-214.1,131.32-15.36,15.66-26.9,33.52-38.99,51.71-11.14,16.75-17.12,41.61-2.61,57.6-.75,3.35-3.07,6.02-6.39,6.97-11.02-14.99-20.13-32.57-8.26-54.7,53.65-99.99,160.64-162.65,264.16-203.61,21.79-8.62,37.83,28.76,53.74,48.25-25.39,43.34-48.26,85.81-69.77,131.99-35.18-4.67-22.97-69.88-60.87-46.94-16.21,9.81-87.42,61.69-81.14,75.89,1.44,3.27,5.66,8.86,9.58,10.47ZM1312.83,190.13c0-.97-.78-1.75-1.75-1.75s-1.75.78-1.75,1.75.78,1.75,1.75,1.75,1.75-.78,1.75-1.75Z"/>
      <path class="cls-1" d="M198.03,265.44c-2.58,17.75-11.39,36.12-12,56.32,4.56,1.93,7.56,1.71,9.74,2.13,3.5.67,9.09,8.11,4.81,9.86-7,2.87-11.4,5.74-9.74,12.11l-6.46.9c-4.25.59-8.2-.77-7.57,4.64.39,3.33-.57,7.85,3.49,9.06.31,2.31,5.4,4.83,3.13,7.64-1.65,2.04-4.27,2.29-6.39,2.57.07-2.66,1.63-6.18-3.06-7.09-15.85,71.72-45.6,162.9-73.27,229.91-1.27,3.09-1.06,7.67.82,8.38,1.78.67,4.03.17,5.4.17-.36,3.51-1.12,7.47-4.33,11.03-2.02,2.24-5.48.6-9.07.51,4.38,8.19,5.34,16.58,12.88,16.41-.79,2.38-1.52,4.76-2.45,7.09-3.81-.67-5.41,3.29-.75,3.29-1.39,16.55-9.37,23.32,1.9,35.04,1.77-1.66,28.9-21.24,26.66-9.94-36.92,18.69-47.52,38.19-60.78,36.8-2.91-.3-23.12-16.55-19.97-22.96,44.45-90.71,80.96-182.54,104.82-280.77l35.72-147.09c2.37-1.41,5.18-.88,6.01,2.27-4.4,5.01-1.65,9.19.46,11.72Z"/>
      <path class="cls-1" d="M117.87,595.02c-.77,2.36-3.54,4.49-3.82,7.01h-7.13c.27-2.65-.34-5.89,2.25-6.64,3.39-.98,6.17-.54,8.7-.37Z"/>
      <path class="cls-5" d="M1533.23,360.92c.73,1.76,2.32,2.91,4.12,3.42-2.67,6.72-7.21,14.79-13.09,21.81-25.86,30.9-46.42,66.18-67.43,100.56-38.62,2.46-56.84,33.91-72.77,24.78-16.14-9.25,27.33-61.89,36.11-82.04,7.07-16.22,8.6-35.36,12.28-51.57,3.36-.06,8.74-1.07,13.28,1.59.36,23.29-3.25,47.51-13.25,68.96-1.55,3.32.52,5.43,1.65,6.65,2.17,2.36,8.37,1.89,10.45-1.63,6.42-10.85,17.42-13.72,25.98-20.29-1.53,1.17,40.85-52.89,34.61-56.24,8.61-6.18,17.91-12.75,28.06-16.01Z"/>
      <path class="cls-1" d="M2161.44,227.25c.22,3.47.12,6.94-.21,10.4,2.09-19.43-50.77,120.03-45.51,104.7-11.05,3.66-20.95,7.19-25.5,22.9-7.12-25.74-37.24-11.69-37.38-29.06-.08-9.55,4.69-17.78,6.7-25.48,19.82-15.54,41.06-8.58,64.51-15.95,3.04-13.66,20.49-62.87,25.3-66.76,3.37-2.72,7.87,0,12.08-.76Z"/>
      <path class="cls-2" d="M1158.52,556.34c-2.87.73-6.94.98-9.8,1.15-11.13-8.26-27.06,4.51-40.22-.09-16-5.6-26.39-34.4-39.3-50.03-2.89,3.57-2.21,6.01-4.13,7.07-3.47-5.64-11.12-10.75-13.5-17.78-5.41-15.96,6.24-17.5,12.69-24.38,12.9,5.69,27.36-7.64,31.36-20.11,6.93-2.99,13.88-11.93,22.36-12.1.16,2.62-2.64,5.53-.05,7.13,10.82-3.94,21.12-7.08,19.07-17.62,1.46-4.2,7.78-4.38,10.69-6.41,3.34,1.12,7.49,3.69,12.3,2.45l27.67-7.12c-1.65,8.42-6.25,16.3-14.28,22.53-1.33-5.23,3.31-7.33,2.45-9.23-1.23-2.7-7.35-3.94-10.41-2.3l-51.09,27.5c-8.25,4.44-11.8,13.2-23.11,15.32-4.02.75-.31,9.88.74,12.48l-14.68-1.25c1.02,8.13,8.74,7.64,12.49,13.87-15.66,27.05,6.41,16.62,20.19,55.77l70.27-14.25c-8.03,7.48-17.76,8.5-28.9,11.6,2.11,3.28,5.98,2.95,7.2,5.81Z"/>
      <path class="cls-3" d="M1779.22,191.56c1.32-3.51,3.66-8.21,7.4-9.87,18.63-8.3,37.21-19.68,49.24-39.22,5.6-9.11,1.59-32.34-8.65-36.73-16.24-6.97-85.31,18.53-100.57,36.33l-3.16-2.54,13.09-14.65c-.39.43,81.46-50.42,105.7-22.18,6.18,7.2,10.58,18.62,7.29,29.78-9.7,32.92-38.63,54.54-70.34,59.09Z"/>
      <path class="cls-1" d="M1786.62,181.69c-3.74,1.67-6.07,6.36-7.4,9.87-21.2,3.04-40.74,1.83-52.57-13.56,2.28-3.19,3.87-6.8,4.59-10.66,3.29-3.46,7.01-2.47,12.77,0-3.93-7.59-1.68-12.52,2.33-18.58,6.69-10.09,17.52-13.77,28.49-6.99,19.87,12.28-17.08,46.46,11.79,39.93ZM1770.01,157.73c0-4.42-3.58-8-8-8s-8,3.58-8,8,3.58,8,8,8,8-3.58,8-8Z"/>
      <path class="cls-1" d="M1572.64,363.36c3.34-11.3,7.61-28.69,7.5-43.27l-42.78,44.26c-1.81-.51-3.39-1.66-4.12-3.42,6.51-8.51,49.3-69.75,60.47-49.67-1.52,19.61-7.22,42.68-16.08,58.96-3.22-3.42-3.32-5.87-4.98-6.85Z"/>
      <path class="cls-5" d="M1148.73,557.49c-10.54,5.95-33.84,17.13-45.99,9.34-18.93-12.13-27.25-35.45-37.66-52.39,1.92-1.07,1.24-3.5,4.13-7.07,12.91,15.62,23.29,44.43,39.3,50.03,13.16,4.61,29.09-8.16,40.22.09Z"/>
      <path class="cls-3" d="M2200.41,393.49c-13.21-.59-.65-9.28-3.85-19.24,2.35-8.36,9.65-10.3,18.18-12.91,10.71-3.28,16.88-15.2,30.56-11.57-15.95,16.25-28.14,33.06-44.89,43.72Z"/>
      <path class="cls-1" d="M1855.85,271.83c-4.26,17.22-2.3,37.65-13.99,52.34l-4.58-.18c-.65-20.01,7.57-39.13,10.68-58.61,3.16,1.44,6.08,3.44,7.89,6.45Z"/>
      <path class="cls-1" d="M1095.63,452.16c-3.99,12.47-18.46,25.8-31.36,20.11,9.1-9.71,19.27-14.89,31.36-20.11Z"/>
      <path class="cls-1" d="M1726.64,142.07c-4.41,5.14-2.53,19.13-1.09,24.58l-5.88.95c-.15-3.14-4.6-4.98-4.17-6.97,2.66.47,5.32-2.54,4.75-5.09-.42-1.87-3.14-2.6-4.64-2.53,1.1-6.25,4.55-10.89,7.87-13.47l3.16,2.54Z"/>
      <path class="cls-1" d="M1137,429.58c2.05,10.54-8.25,13.68-19.07,17.62-2.59-1.6.21-4.51.05-7.13,5.63-.11,10.5-13.78,19.02-10.49Z"/>
      <path class="cls-3" d="M1725.55,166.65l5.69.69c-.72,3.86-2.31,7.47-4.59,10.66-2.86-3.71-6.7-4.52-6.97-10.41l5.88-.95Z"/>
      <path class="cls-3" d="M1842.6,339.18c-5.07-1.06-4.61-7.79-5.48-11.77-.24-1.1.19-2.3.16-3.42l4.58.18.75,15.01Z"/>
      <path class="cls-3" d="M1715.51,160.62c.29-1.35-3.81-2.4-2.34-4.61.76-1.14,1.76-2.22,2.45-3.01,1.49-.07,4.21.66,4.64,2.53.57,2.55-2.09,5.56-4.75,5.09Z"/>
      <path class="cls-2" d="M2161.44,227.25c-4.21.75-8.72-1.96-12.08.76-4.81,3.89-22.26,53.1-25.3,66.76-23.45,7.37-44.69.4-64.51,15.95l-3.57-.83,31.55-95.46c-11.41-10.85-57.8-.15-77.34-3.52-4.67,35.23-1.51,66.2,2.48,99l-41.38,25.02c-8.39-14.42-.9-33.14-11.37-43.88-26.36-9.73-22.34,35.69-69.45,41.33-16.42,1.96-32.33,10.05-47.86,6.8l-.75-15.01c11.7-14.69,9.73-35.12,13.99-52.34,5.5-22.25,8.73-44.95,12.73-70.95,13.15,3.02,58.33,19.19,58.98,24.32,2.11,16.55-13.66,40.85-14.81,66.38,8.52,2.34,43.78-42.98,51.92-51.04,10.29-10.19,20.87-22.02,32.91-30.24,11.24-7.67,23.52-14.51,28.09-28.38l70.42-7.22c10.77-6.33,12.8-25.5,16.74-36.75l27.02-77.2c23.37,6.66,44.52,16.3,62.21,32.66-9.26,25.84-21.7,46.82-27.02,77.05,34.92,5.43,70.98,5.84,106.29,13.82,11.59,2.62,16.91,21.73,17.33,32.66-48.25,1.33-92.83,2.42-137.21,10.3Z"/>
      <path class="cls-5" d="M1561.99,108.04l-6.5,45.42c-1.02,7.15-1.53,15.92,3.9,20.95-10.31,44.67-26.74,36.72-39.03,94.58-5.45.33-10.64,3.31-14.17,5.69-5.91,4-10.45,54-11.84,67.13-1.36,12.8-8.54,23.96-6.59,35.54-10.99,2.77-21.42,3.92-33.8.23,6.89-10.98-3.56-21.13-2.53-31.39,4.15-41.2,22.34-90.31,29.7-136.09,3.27-20.37,8.96-38.48,14.62-58.36,3.28-11.5,2.87-23.35,7.06-33.72,11.16-8.92,23.53-4.46,38.2-3.33,7.07.54,13.9-11.2,20.98-6.65Z"/>
      <path class="cls-2" d="M1767.28,351.12c-16.27,6.07-32.85,7.21-50.68,8.38l17.13-124.76,77.57-2.81-44.02,119.19Z"/>
      <path class="cls-2" d="M1559.39,174.41c-5.43-5.03-4.92-13.8-3.9-20.95,1.63.54,3.28.34,4.22-.46-1.76,1.49,22.58-96.03,28.11-106.85,12.99-.43,29.11,9.15,30.2,19.24l-58.64,109.03Z"/>
      <path class="cls-2" d="M1561.99,108.04c-7.07-4.55-13.91,7.19-20.98,6.65-14.67-1.12-27.04-5.58-38.2,3.33,1.75-6.2-10.38-43.5-2.96-45.78,15.15-4.66,31.81,14.48,68.83,9.41.47,11.86-5.56,18.48-6.69,26.38Z"/>
      <path class="cls-2" d="M1562.04,453.72c.48,9.02-3.74,10.05-4.3,1.91.45-4.04,2.32-5.58,4.3-1.91Z"/>
      <path class="cls-4" d="M1019.36,621.24l-57.2,2.81c-28.36,1.39-163.04,22.95-160.05,23.13-9.25-.57-25.14,1.77-36.08,3.76-94.18,17.13-221.95,49.82-303.34,99.47-21.58,13.16-43.05.21-63.62-9.77l-63.62-30.86c-10.09-4.89-17.42-12.29-18.3-22.04-2.58-28.82,34.93-29.38,47.19-54.84-10.67-3.58-18.13,3.33-27.29,5.88-47.55,13.23-91.26,31.98-135.84,52.61l-45.83,21.21c-12.47,5.77-26.05,10.35-36.92,19.05-35.06,28.07-79.3,20.51-105.71-14.34-14.1-18.61-16.84-37.16-6.47-59.32,41.17-87.98,80.79-178.25,102.52-272.72l21.59-93.86,12.29-33.89c14.38-39.66-30.88-30.68-19.59-86.57,2.18-10.78,13.04-23.45,27.64-29.35l122.18-49.39c28.88-11.68,57.93-20.13,85.77-34.03,16.66-8.32,47.79,1.38,57,16.5,7.67,12.59,12.94,26.08,6.67,41.63l-51.09,126.77c-2.57,6.37-9.74,18.93-3.1,23.84,10.56,7.81,21.36-9.04,29.38-11.53,44.42-13.84,110.73-87.55,201.1-16.02,26.66-14.75,48.66-33.55,73.62-49.54,28.8-18.45-49.5-52.27-27.51-99.87,4.22-9.14,17.39-20,31.52-21.06,14.74-1.1,29.14-4.58,44.05-4.76,33.31-.39,65.03.73,98.07-3.3l32.12-3.92,49.16-2.46,234.14-19.32c28.13-2.32,53.23,8.69,54.1,38.71l1.28,44.33c.13,4.38.77,7.48,3.69,9.26,3.05,1.86,6.7,1.5,11.21-1.9,60.69-45.79,127.53-82.04,197.95-109.52,24.67-9.63,41.15,1.08,62.93,10.81,48.57-15.54,35.9,3.47,80.31-5.12,29.04-40.05,92.54-17.2,118.03,8.41,48.99,49.23-56.15,125.07-2.01,123.34,17.01-.54,24.62-35.29,44.36-49.36,36.31-25.89,80.08-47.98,123.99-48.89,41.04-.85,68.03,32.17,67.6,69.55-.11,9.88-.73,22.88,2.94,30.55l45.78,17.85c11.16,4.35,23.39-.66,28.36-10.76,23.55-47.8,65.7-23.38,93.24-39.81,19.56-28.28,29.25-101.18,56.93-113.04,21.49-9.21,40.89-.04,59.89,9.25,24.32,11.89,49,20.71,70.33,37.63,27.44,21.77,7.61,48.15,12.3,72.45,50.08,2.4,58.86.62,86.49,49.27,10.58,18.62,24.91,42.38,14.89,63.84-14.88,31.88-69.85,26.2-105.58,30.1-31.48,3.43-42.6,1.94-65.7,11.83-13.05,17.58-20.15,39.7-17.62,63.38,31.61-5.81,62.59-44.74,95.05-23.62,13.86,9.02,18.45,26.16,15.3,44.03-2.72,15.42-15.3,27.39-26.89,38.28l-72.02,67.7c-17.38,16.34-75.52,69.48-80.32,86.95-5.35,19.45-6.41,37.71-22.95,52.64l-80.45,72.62c-11.45,10.34-27.54,11-42.21,5.79-16.25-5.78-32.48-9.23-49.16-14.11-48.33-14.13-95.61-25.1-146.01-28.56-14.57-1-27.51-7.35-43.01-7.18,10.38-.11-68.19-6.46-70.23-6.62l-42.1-3.39c-43.1-3.47-76.13-6.64-119.7-6.92-21.95-.14-43.58-5.61-66.32-3.33-24.78,2.49-48.8,1.19-73.75.98l-195.84-1.69c-22.95-.2-47.87,17.49-71.81,5.17-21.22-10.92-42.27-6.05-67.69-4.8ZM1432.45,377.88c-3.68,16.21-5.21,35.35-12.28,51.57-8.78,20.14-52.24,72.79-36.11,82.04,15.93,9.13,34.15-22.32,72.77-24.78,21.01-34.38,41.57-69.65,67.43-100.56,5.88-7.02,10.42-15.09,13.09-21.81l42.78-44.26c.12,14.58-4.15,31.98-7.5,43.27-1.67,5.65-4.43,16.43-6.68,21.76-10.62,25.23-37.05,110.99,13.18,112.29,37.01-13.91,65.48-48.35,101.56-66.27,7.38,12.43-8.67,40.24,12.66,54.85,8.18,5.6,22.09,10.05,31.56,1.99l93.12-79.33c.02,14.89-41.41,106.93-3.35,88.09l58.01-28.72c13.58-21.41,8.57-52.23,19.21-75.74,15.14-33.45,37.22-62.59,59.77-93.35l12.11,56.73c22.72-12.42,41.99-25.87,60.26-41.71-2-31.01-8.32-59.22-5.3-90.71,18.14-3.56,35.72-2.13,54.12-2.43.25,8.49-1.56,16.49-5.33,24.07-12.09,24.3-16.32,49.58-24.68,73.32l-32.1,91.17c-4.89,13.9-17.85,32.54-9.53,47.15,4.87,8.54,55.59,70.92,49.73,71.53,2.15-.22,7.68-.77,9.86-2.76l127.42-116.82c5.19-4.76,9.1-10.79,12.18-14.99,16.75-10.67,28.94-27.47,44.89-43.72-13.68-3.63-19.85,8.29-30.56,11.57-8.52,2.61-15.83,4.55-18.18,12.91-5.7-.67-10.96,1.71-16.91,4.73l-76.3,38.76c-2.32,1.18-7.65,1.48-9.49,1.14-2.36-.44-1.88-7.37-.83-10.43l22.68-66.11c-5.26,15.33,47.6-124.12,45.51-104.7,13.51.98,27.28-1.8,42.31-3.79,35.24-4.67,69.24-4.94,104.68-6.3,21.62-.83-14.13-51.77-18.73-54.19l-101.74-12.54c3.11-21.24,38.2-68.7,23.94-79.28-22.46-16.67-46.65-29.84-75.58-38.9l-38.9,109.16c-2.31,6.49-5.33,13.15-13.22,13.58l-74.48,4.07c-2.1,8.26-.41,15.67-1.61,24.18-26.72-.47-56.45,46.03-74.15,65.47-2.48-15.98,12.61-33.71,2.34-44.78-3.24-7.69-64.81-26.01-67.36-26.1-16.43-.59-17.93,59.32-20.78,77.16-3.11,19.48-11.34,38.6-10.68,58.61.04,1.13-.4,2.33-.16,3.42-7.94,5.91-2.18,20.32-10.1,27.7-19.88,18.54-41.16,34.34-66.84,49.04,12.37-62.19,50.19-120.9,66.46-180.58.23-4.51-11.72-6.4-15.82-5.99l-72.3,7.08c-10.89,1.07-12.77,7.57-14.85,16.81-10.59,46.96-9.51,97.76-30.74,141.22-10.66,21.83-46.25,31.61-67.68,33.15,16.06-65.75,45.96-119.28,72.41-176.13,2.74-5.89,7.64-14.87,2.26-21.15-10.61-12.39-26.75-26.69-43.83-28-37.62-2.89-106.03,96.92-136.16,121.68,8.23-39.59,25.19-72.06,40.19-107.81,19.7-46.95,41.79-90.6,65.21-135.9,5.48-10.6-7.05-22.39-13.26-27.02-7.88-5.87-19.99-9.4-30.29-4.06-7.94,4.11-15.16,45.82-44.1,34.4l-32.6-12.86c-5.92-2.34-11.77-.45-15.6,2.56-13.84,10.88,2.53,34.69,3.49,49.98l-60.53,266.36ZM1159.45,311.45c12.9,17.54,29.81,29.1,53.26,36.97l86.06,28.89c8.14,2.73,15.12,9.62,15.95,16.62,3.55,29.76-111.83,72.57-143.42,76.53,1.24-20.82,36.07-49.45,32.33-62.48-4-13.93-47.76,9.48-55.94,15.18-2.91,2.03-9.23,2.21-10.69,6.41-8.51-3.29-13.39,10.38-19.02,10.49-8.48.16-15.43,9.11-22.36,12.1-12.09,5.22-22.26,10.4-31.36,20.11-6.45,6.88-18.1,8.42-12.69,24.38,2.38,7.03,10.03,12.13,13.5,17.78,10.41,16.94,18.73,40.26,37.66,52.39,12.15,7.79,35.45-3.39,45.99-9.34,2.85-.17,6.93-.42,9.8-1.15,70.98-18.11,169.85-62.9,220.81-116.25,20.78-10.81,40.08-35.01,36.5-60.14-4.07-28.57-27.31-47.55-51.32-61.05-32.16-18.08-64.79-32.62-97.63-46.09-3.92-1.61-8.14-7.2-9.58-10.47-6.28-14.21,64.94-66.08,81.14-75.89,37.89-22.94,25.68,42.27,60.87,46.94,21.51-46.17,44.38-88.64,69.77-131.99-15.91-19.49-31.95-56.87-53.74-48.25-103.53,40.96-210.52,103.62-264.16,203.61-11.87,22.12-2.76,39.71,8.26,54.7ZM839.14,405.33l-39.37,140.02c-1.91,6.81-2.11,13.56,3.6,17.39,4.93,3.31,10.1-4.4,14.81-5.69,45.16-12.33,89.73-27.85,137.17-43.77-16.02-14.82-28.44-6.12-48.09-13.79,18.42-56.22,28.11-112.78,41.41-167.4,11.21-46.02,32.89-90.91,40.49-140.26.89-5.77,10.05-11.21,14.46-12.07l126.29-24.67c6.99-1.37,12-7.61,12.27-14.7l2.62-68.34c-86.14,1.55-168.18,11.43-252.38,21.56l-88.14,10.6-118.63,8.03,46.57,53.91c15.82,18.31,31.21,36.82,51.67,51.8l99.61-19.72-42.48,186.98c-1.73,7.62-2.38,14.07-1.88,20.13ZM1723.48,139.53c-3.32,2.58-6.77,7.22-7.87,13.47-.69.79-1.69,1.87-2.45,3.01-1.48,2.21,2.63,3.25,2.34,4.61-.43,2,4.02,3.84,4.17,6.97.27,5.88,4.12,6.69,6.97,10.41,11.84,15.4,31.37,16.6,52.57,13.56,31.71-4.54,60.64-26.17,70.34-59.09,3.29-11.16-1.11-22.58-7.29-29.78-24.24-28.23-106.08,22.61-105.7,22.18l-13.09,14.65ZM191.56,251.45l-35.72,147.09c-23.85,98.23-60.36,190.05-104.82,280.77-3.14,6.41,17.06,22.66,19.97,22.96,13.26,1.38,23.86-18.11,60.78-36.8,2.21-1.12,4.94-3.57,7.13-4.21,7.85-2.33,14.5-6.71,23.45-10.49,66.21-27.99,130.82-55.84,199.72-77.06l28.49-51.78c19.74,38.25,58.91,77.15,99.55,59.95,40.27-17.04,57.71-79.06,62.95-88.62,14.11-25.75,22.75-54.8,27.55-84.02,1.36-8.29,2.75-16.37.37-24.77-.93-3.28-.3-6.96-.81-10.3l4.4-.76c7.59.11,9.05,8.81,14.34,13.9,19.08,18.39,44.04,29.49,68.67,33.11,5.36,8.23,37.06,11.35,42.09,22.91,3.68,8.46-10.05,15.94-10.77,21.21-20.58,8.35-41.53,26.02-68.48,32.37-3.14-15.52,19.89-34.33,13.6-45.3-8.83-15.39-92.82,39.99-82.66,67.81,7.3,19.98,20.62,40.12,36.29,54.6,38.06.27,68.55-18.66,97.94-34.88,33.41-18.45,65.33-42.88,87.29-77.17,11.31-17.67,9.26-38.58-8.27-51.05-19.33-13.75-40.04-26.27-61.64-33.29-10.91-12.52-38.66-11.86-41.2-38.18,14.89-19.49,34.5-37.19,60.11-46.18,6.54-2.3,5.51,10.54,3.36,14.58-5.41,10.16-12.76,17.04-18,28.87,40.86,20.07,68.65-22.04,87.33-53.01,13.18-21.86-34.27-39.65-58.38-54.01-12.34-7.35-26.22-9.28-39.26-1.38-48.16,29.19-88.58,67.68-118.17,114.45-4.18-4.58-3.87-8.33-5.6-11.1-.96-1.98-.93-4.72-2.73-6.19-.33-34.73-32.49-68.74-70.33-63.43-31.21,4.38-59.99,22.5-80.89,42.49-16.67-.27-30.01,15.73-46.47,23.04,4.86,11.91,13.95,11.13,25.27,14.48-12.81,47.36-43.48,92-46.45,143.03l-91.3,32.18c-20.68,7.29-41.17,13.11-57.66,25.23-2.82,1.8-9.6,1.85-16.61,2.8l55.07-153.25,93.11-232.01c7.48-18.63,16.39-34.83,18.93-57.59l-200.36,77.79c11.03,15.67,28.45,9.82,40.73,21.77-3.51,17.49-8.23,34.29-11.92,49.46ZM1112.64,371.51c13.29-3.94,30.53-64.07,7.04-63.69-38.85.64-76.73,6.19-114.94,9.53-7.07,16.77-36.65,64.03-24.71,72.19,2.22,1.51,6.3,5.58,10.87,4.61,39.93-8.43,81.04-10.57,121.74-22.65ZM1926.68,629.03c23.24,7.65,43.98,21.05,63.5,1.53,16.67-16.68,36.03-32.83,51.06-53.21-1.9-7.81-14.16-8.94-20.27-9.26l-240.7-12.79c-162.73-8.65-322.69-7.16-485.39-3.45-17.3.39-33.85,4.21-44.13,18.77,142.9-1.61,277.31,5.28,415.87,16.05,90.18,7.01,174.66,22.45,260.07,42.35ZM461.25,702.81c81.02-44.8,162.46-74.3,251.32-91.18,113.37-21.54,224.66-35.12,340.7-41.67,2.97-.17,1.22-7.93-1.1-8.28-46.84-7.09-332.78,26.68-393.01,39.44l-124.52,26.39c-22.89,4.85-136.98,38.3-156.18,52.27,27.73,12.81,53.71,20.7,82.79,23.03Z"/>
      <path class="cls-5" d="M1113.15,145.92c-8.47-5.63-4.96-14.25-4.71-23.41.37-13.45-8.87-26.7-2.02-37.74,7.43-.32,14.45-3.59,24.95-1.21,1.43,19.03,2.41,39.11-1.74,57.99-1.6,7.25-12.85,2.68-16.48,4.37Z"/>
      <path class="cls-2" d="M190.83,345.86c-1.66-6.38,2.74-9.25,9.74-12.11,4.27-1.75-1.32-9.19-4.81-9.86-2.18-.41-5.17-.19-9.74-2.13.61-20.19,9.42-38.57,12-56.32,4.41-21.39,13.76-42.83,15.4-66.26.68-9.73-15.15-9.23-20.3-17.4l151.76-58.76c-10.09,41.25-28.04,75.75-42.93,112.41l-47.51,116.97c-23.43-.45-45.24-9.11-63.62-6.54Z"/>
      <path class="cls-5" d="M177.03,370.66c-11.94,76.11-35.16,150.99-59.16,224.36-2.52-.17-5.31-.61-8.7.37-2.59.75-1.98,3.99-2.25,6.64-1.37,0-3.62.51-5.4-.17-1.88-.71-2.1-5.3-.82-8.38,27.67-67.01,57.42-158.19,73.27-229.91,4.69.91,3.13,4.43,3.06,7.09Z"/>
      <path class="cls-5" d="M114.05,602.03c-1.07,9.66-4.61,18.75-7.65,27.94-7.54.17-8.5-8.22-12.88-16.41,3.59.09,7.06,1.73,9.07-.51,3.2-3.56,3.97-7.52,4.33-11.03h7.13Z"/>
      <path class="cls-5" d="M184.37,346.76c-2.63,3.78-4.73,8.93-4.09,13.7-4.05-1.21-3.1-5.73-3.49-9.06-.63-5.41,3.32-4.05,7.57-4.64Z"/>
      <path class="cls-5" d="M103.21,640.36c-4.67,0-3.07-3.96.75-3.29-.39.99-.66,2.23-.75,3.29Z"/>
      <circle class="cls-3" cx="213.84" cy="621.31" r="1.75"/>
      <path class="cls-2" d="M1264.69,279.14c36.06,26.65,137.38,48.94,138.29,107.97-23.63,1.16-47.86,4.26-69.46,2.03-14.72-12.05-27.72-23.12-45.83-28.99l-78.56-25.48c-1.77-.57-1.06-9.1-3.32-9.64-2.49-.6-4.71,3.81-6.64,5.35-12.39-5.97-24.08-15.71-33.33-25.9-14.51-15.99-8.52-40.85,2.61-57.6,12.09-18.19,23.63-36.05,38.99-51.71,61.54-62.72,131.33-100.59,214.1-131.32,15.12,10.54,27.39,24.14,35.79,39.25-11.62,22.47-25.96,40.79-36.07,63.04-3.86,8.49-11.41,12.85-18.55,15.78,2.63,11.44,2.99,24.47-8.31,31.22-13.78-4.49-14.35-44.04-41.18-42.09-3.65.27-48.08,18.81-46.43,16.46-1.19,1.69-.62,8.24-2.79,9.48-12.36,7.05-55.27,47.29-59.21,62.17-2.72,10.26,12.31,18.34,19.89,19.97ZM1304.54,358.39c0-1.23-1-2.23-2.23-2.23s-2.23,1-2.23,2.23,1,2.23,2.23,2.23,2.23-1,2.23-2.23Z"/>
      <circle class="cls-1" cx="1188.39" cy="528.41" r="2.23"/>
      <circle class="cls-1" cx="1200.66" cy="481.09" r="2.23"/>
      <circle class="cls-2" cx="1170.86" cy="446.03" r="1.75"/>
      <circle class="cls-1" cx="1181.37" cy="481.09" r="1.75"/>
      <circle class="cls-1" cx="1290.05" cy="495.11" r="1.75"/>
      <circle class="cls-1" cx="1174.36" cy="484.59" r="1.75"/>
      <path class="cls-1" d="M744.77,166.52c-4.42-7.45-2.29-13.66-2.96-20.06-.93-8.91-5.15-17.37-.14-26.8,4.4-.06,15.13-4.45,17.13,1.94,2.75,8.8-6.59,16.66-6.18,24.67.44,8.53,6.77,16.08,6.03,24.95-.53,6.28-8.07,5.08-10.17,1.53l-3.7-6.24Z"/>
      <path class="cls-5" d="M741.66,119.67c-5.01,9.42-.79,17.88.14,26.8.67,6.4-1.46,12.61,2.96,20.06-12.25-13.32-26.95-25.48-32.41-45.23,9.37-3.65,21.45-1.52,29.31-1.62Z"/>
      <path class="cls-5" d="M1579.55,562.07l-.29,5.24-52.27-1.12c-10.81-.23-20.9-1.76-32.12-5.1,28.37-1.45,56.8-2.9,84.68.99Z"/>
      <path class="cls-2" d="M548.52,640.16c.81,2.01,2.01,3.84,3.58,5.35-9.59.64-15.13,9.27-21.9,12.41l-71.03,33c-16.38,7.61-39.23-8.85-55.18-13.56,34.1-15.65,67.9-20.35,101.88-31.42,14.62-4.77,28.67-8.82,42.64-5.78Z"/>
      <path class="cls-1" d="M552.1,645.5c-1.57-1.5-2.77-3.33-3.58-5.35l61.51-16.54c-7.43,13.03-21.17,7.02-30.66,13.03-9.01,5.71-18.2,8.24-27.27,8.85Z"/>
      <circle class="cls-2" cx="1311.08" cy="190.13" r="1.75"/>
      <circle class="cls-4" cx="1762.01" cy="157.73" r="8"/>
      <path class="cls-2" d="M1786.62,181.69c-28.87,6.53,8.09-27.65-11.79-39.93-10.97-6.78-21.8-3.1-28.49,6.99-4.01,6.05-6.26,10.99-2.33,18.58-5.77-2.47-9.48-3.45-12.77,0l-5.69-.69c-1.45-5.45-3.32-19.43,1.09-24.58,15.25-17.8,84.33-43.3,100.57-36.33,10.24,4.39,14.26,27.62,8.65,36.73-12.03,19.55-30.61,30.92-49.24,39.22Z"/>
      <circle class="cls-5" cx="1302.32" cy="358.39" r="2.23"/>
      <g>
        <path class="cls-3" d="M698.89,464.54c-.72,5.22-2.39,9.07-7.63,13.93,12.48,3.91,11.84,12.21,12.82,21.64,1.76,16.98-4.5,28.69-22.96,33.23,5.39,3.53,10.63,2.1,14.46,5.81-29.39,16.23-59.88,35.15-97.94,34.88-15.66-14.49-28.98-34.63-36.29-54.6-10.17-27.81,73.83-83.19,82.66-67.81,6.29,10.97-16.74,29.78-13.6,45.3,26.95-6.35,47.9-24.03,68.48-32.37Z"/>
        <path class="cls-3" d="M671.77,339.44c-24.71-4.77,21.52-26.89,27.96-41.67,5.14-11.79,14.26-30.07,28.21-22.57-1.16,2.25-.26,3.28,1.61,3.81s3.4.96,4.87,1.19c4.73.72,9.48,0,14.02-1.41-1.82,6.76-1.42,44.5-3.01,50.68,17.66,1.07,19.68-10.91,27.74-18.65,10.67-10.24,26.5-22.61,21.09-38.81-4.23-12.67-21.15-11.65-28.78-17.48-10.64-8.12-22.59-18.77-37.88-21.33-16.81-2.82-26.31,11.69-37.71,18.52-18,10.79-33.38,21.35-47.23,37.95-3.57,4.28-11.71,6.21-9.6,11.97l4.96,13.52c-8.61,5.77-10.21,14.46-6.96,25.07,4.63,15.11,2.87,30.94,12.64,45.13-3.07,3.4-6.83,1.16-11.13,4.53,15.76,7.67,32.73,5.85,49.56,5.12,11.85-.52,24.6.66,35.05,5.48-4.04,3.12-7.4,4.65-6.32,6.02,1.37,1.74,3.49,2.23,7.72,4.96-30.01,30.63-38.43-6.14-51,8.92-24.63-3.62-49.58-14.72-68.67-33.11-5.28-5.09-6.75-13.78-14.34-13.9,4.22-20.06-20.02-33.28-1.41-41.74,1.73,2.77,1.42,6.53,5.6,11.1,29.58-46.77,70.01-85.26,118.17-114.45,13.04-7.9,26.92-5.97,39.26,1.38,24.11,14.36,71.56,32.15,58.38,54.01-18.68,30.97-46.47,73.08-87.33,53.01,5.24-11.84,12.59-18.71,18-28.87,2.15-4.04,3.18-16.87-3.36-14.58-25.61,8.99-45.22,26.69-60.11,46.18ZM629.25,309.31c0-.97-.78-1.75-1.75-1.75s-1.75.78-1.75,1.75.78,1.75,1.75,1.75,1.75-.78,1.75-1.75Z"/>
        <path class="cls-5" d="M712.97,377.63c21.59,7.03,42.31,19.54,61.64,33.29,17.53,12.47,19.58,33.38,8.27,51.05-21.96,34.3-53.88,58.72-87.29,77.17-3.84-3.71-9.07-2.28-14.46-5.81,18.46-4.53,24.72-16.25,22.96-33.23-.97-9.43-.34-17.73-12.82-21.64,5.23-4.86,6.91-8.71,7.63-13.93.73-5.28,14.45-12.76,10.77-21.21-5.03-11.57-36.74-14.68-42.09-22.91,12.56-15.06,20.99,21.71,51-8.92-4.23-2.73-6.35-3.22-7.72-4.96-1.07-1.37,2.28-2.9,6.32-6.02-10.45-4.82-23.19-6-35.05-5.48-.38-7.53-.54-15.72-3.43-24.87,12.76,2.53,23.78,14.34,34.27,7.47ZM709.63,488.04c0-1.15-.93-2.08-2.08-2.08s-2.08.93-2.08,2.08.93,2.08,2.08,2.08,2.08-.93,2.08-2.08Z"/>
        <path class="cls-1" d="M765.47,254.55c-9.11,3.18-14.42,14.55-17.03,24.25-4.54,1.4-9.29,2.13-14.02,1.41-.46-3.85-4.02-3.68-6.48-5-13.95-7.5-23.07,10.78-28.21,22.57-6.44,14.77-52.67,36.89-27.96,41.67,2.54,26.33,30.29,25.67,41.2,38.18-10.49,6.87-21.51-4.94-34.27-7.47,2.89,9.15,3.05,17.34,3.43,24.87-16.83.73-33.8,2.55-49.56-5.12,4.3-3.37,8.06-1.14,11.13-4.53-9.77-14.19-8.01-30.02-12.64-45.13-3.25-10.61-1.65-19.31,6.96-25.07l-4.96-13.52c-2.11-5.75,6.03-7.69,9.6-11.97,13.85-16.6,29.23-27.16,47.23-37.95,11.4-6.84,20.9-21.34,37.71-18.52,15.29,2.57,27.24,13.21,37.88,21.33ZM663.81,286.53c0-1.67-1.35-3.02-3.02-3.02s-3.02,1.35-3.02,3.02,1.35,3.02,3.02,3.02,3.02-1.35,3.02-3.02Z"/>
        <path class="cls-5" d="M748.44,278.8c2.61-9.7,7.92-21.08,17.03-24.25,7.64,5.83,24.55,4.8,28.78,17.48,5.41,16.2-10.42,28.57-21.09,38.81-8.06,7.74-10.08,19.72-27.74,18.65,1.59-6.18,1.2-43.92,3.01-50.68Z"/>
        <path class="cls-5" d="M734.41,280.21c-1.48-.23-3.02-.67-4.87-1.19s-2.77-1.56-1.61-3.81c2.46,1.32,6.02,1.15,6.48,5Z"/>
        <circle class="cls-1" cx="627.49" cy="309.31" r="1.75"/>
        <circle class="cls-3" cx="707.55" cy="488.04" r="2.08"/>
        <circle class="cls-3" cx="660.8" cy="286.53" r="3.02"/>
      </g>
      <g>
        <path class="cls-3" d="M526.34,318.03c.54,3.74-2.4,6.77-3.36,10-25.54-24.72-53.28,52.66-61.34,67.36-.99.7-2.77,1.37-3.29,2.59-.62,1.45-.13,3.06.62,4.22l-.86,7.01c-1.65.13-3.65-.3-5.79,0-1.55.22-2.84,2.55-1.56,4.81.78,1.38,3.83,1.48,4.72,2.19,1.58,9.43-5.1,18.51-4.51,28.04-2.24-.02-5.52-1.05-7.49,1.66-2.61,3.58,2.37,3.78,3.48,5.35,4.49,6.36,1.34,14.42.5,21.03-11.53,3.97-3.72,15.75-5.39,25.35-2.36,13.52-1.67,37.75,16.44,37.14l27.76-.93c29.3-41.86,46.18-90.58,49.48-141.98,12.88-2.32,28.55-5.15,40.42.84,4.35,2.19-3.03,16.67,4.45,16.5-4.8,29.22-13.44,58.27-27.55,84.02-2.7-1.49-6-2.28-9.41-1.98-.77,12.39-2.88,22.61-8.04,32.23-3.34-2.13-4.59-4.8-6.7-5.15-26.12,51.46-23.2,23.13-43.29,36.48,1.53,2.63,5.74,2.63,10.68,7.13-21.63,18.37-49.87,6.96-54.56-3.52-6.21-13.87-10.5-25.53-29.21-23.43-4.12-8.23-3.39-16.58-7.91-23.98-3.55-5.81-11.85-4.39-18.33-3.36-6.12.97-11.23,16.07-15.21,17.76-7.2,3.04-7.95-14.51-8.94-16.04-2.63-4.05-8.62,1.3-13.38-4.36,19.13.75,31.13-17.18,31.47-36.33.46-25.8,30.19-73.53,34.99-90.85,11.61,2.72,25.64,7.49,37.04,1.56,1.43-.74-.69-6.78,1.21-6.59,2.28.23,3.48,2.21,6.59,4.93,9.27-21.75,33.37-77.83,66.28-59.72Z"/>
        <path class="cls-1" d="M580.43,325.47c1.8,1.47,1.77,4.21,2.73,6.19-18.62,8.47,5.63,21.69,1.41,41.74l-4.4.76c-.38-2.49,1.69-5.3-2.02-10.49-2.71,6.25-3.77,16.72,2.83,20.79,2.38,8.4.99,16.48-.37,24.77-7.48.17-.1-14.31-4.45-16.5-11.88-5.99-27.54-3.16-40.42-.84-3.3,51.41-20.17,100.13-49.48,141.98l-27.76.93c-18.12.61-18.8-23.61-16.44-37.14,1.68-9.6-6.14-21.38,5.39-25.35-1.42,11.07-.4,50.95,18.92,51.13,35.85.32,53.32-120.77,57.4-145.78,10.96,10.7,10.76-49.17.16-38.56.03-3.44-1.96-7.68-.95-11.08.96-3.24,3.89-6.26,3.36-10-1.4-9.77,7.97-14.82,16.49-21.28-.7-7.44-6.55-11.37-7.67-16.93,39.75,3.69,28.81,54.08,45.26,45.65Z"/>
        <path class="cls-3" d="M580.43,325.47c-16.45,8.44-5.51-41.96-45.26-45.65-18.24-22.23-70.2,5.64-87.61,21.86-6.38,5.94-9.08,10.12-18.37,10.03-.56-2.42-2.87-5.01.03-7.19,20.89-19.99,49.68-38.11,80.89-42.49,37.84-5.31,70,28.7,70.33,63.43Z"/>
        <path class="cls-3" d="M580.17,374.17c.51,3.33-.12,7.02.81,10.3-6.6-4.06-5.53-14.54-2.83-20.79,3.71,5.19,1.64,8.01,2.02,10.49Z"/>
        <path class="cls-5" d="M535.17,279.82c1.12,5.56,6.96,9.49,7.67,16.93-8.52,6.46-17.89,11.51-16.49,21.28-32.9-18.11-57,37.97-66.28,59.72-3.11-2.72-4.31-4.7-6.59-4.93-1.9-.19.22,5.84-1.21,6.59-11.4,5.93-25.43,1.16-37.04-1.56,2.67-9.66-1.88-23.29,3.91-35.02,1.85-3.75-9.91-12.69-3.83-17.29,5.8-4.4,15.71-5.9,13.87-13.82,9.3.09,11.99-4.09,18.37-10.03,17.42-16.22,69.37-44.09,87.61-21.86Z"/>
        <path class="cls-4" d="M522.99,328.03c-1.01,3.4.98,7.64.95,11.08-.12,13.28,1.95,25.67-.16,38.56-4.09,25-21.56,146.1-57.4,145.78-19.32-.17-20.34-40.05-18.92-51.13.85-6.61,3.99-14.67-.5-21.03,2.5-1.2,4.18-4.21,4.01-7.01-.59-9.53,6.09-18.61,4.51-28.04,2.35-1.56,2.33-4.47,2.64-7.01l.86-7.01c1.29-2.1,2.11-4.43,2.67-6.82,8.07-14.7,35.8-92.08,61.34-67.36Z"/>
        <path class="cls-1" d="M458.12,409.22c-.31,2.54-.29,5.45-2.64,7.01-.89-.71-3.93-.8-4.72-2.19-1.28-2.27.02-4.59,1.56-4.81,2.14-.31,4.14.13,5.79,0Z"/>
        <path class="cls-1" d="M450.97,444.28c.17,2.8-1.51,5.81-4.01,7.01-1.11-1.57-6.09-1.76-3.48-5.35,1.97-2.71,5.25-1.68,7.49-1.66Z"/>
        <path class="cls-1" d="M458.97,402.21c-.76-1.16-1.24-2.78-.62-4.22.52-1.23,2.3-1.89,3.29-2.59-.56,2.39-1.37,4.72-2.67,6.82Z"/>
        <path class="cls-3" d="M523.78,377.67c2.11-12.9.03-25.28.16-38.56,10.61-10.61,10.8,49.26-.16,38.56Z"/>
      </g>
    </g>
  </g>
</svg>